<?xml version="1.0" encoding="utf-8"?>
<!-- Generator: Adobe Illustrator 24.1.0, SVG Export Plug-In . SVG Version: 6.00 Build 0)  -->
<svg version="1.1" id="Layer_1" xmlns="http://www.w3.org/2000/svg" xmlns:xlink="http://www.w3.org/1999/xlink" x="0px" y="0px"
	 viewBox="0 0 20 20" style="enable-background:new 0 0 20 20;" xml:space="preserve">
<style type="text/css">
	.st0{fill:#F8EA49;}
</style>
<g>
	<path class="st0" d="M-21.6-26.3c0,1.2-0.2,2-0.4,2.8c-0.6,1.8-1.6,3.3-2.8,4.8c-1,1.3-2.2,2.6-3.5,3.7c-0.1,0.1-0.1,0.1-0.2,0
		c-1.8-1.6-3.4-3.4-4.7-5.5c-0.7-1.2-1.4-2.4-1.7-3.7c-0.6-2.2-0.1-4.3,1.4-6c1.1-1.3,2.5-2.1,4.1-2.4c1.9-0.3,3.7,0.1,5.2,1.3
		C-22.6-30-21.7-28.2-21.6-26.3z M-28.4-23.6c1.3,0,2.3-1,2.3-2.3c0-1.3-1-2.3-2.3-2.3c-1.3,0-2.3,1-2.3,2.3
		C-30.7-24.6-29.7-23.6-28.4-23.6z"/>
</g>
<g>
	<path class="st0" d="M24.4-17.6c0-1.8,0.8-3.2,2.2-4.3c0.4-0.3,0.9-0.7,1.4-0.9c0.6-0.3,1.1-0.2,1.4,0.4c0.6,1,1,2,1.2,3.1
		c0.1,1-0.2,1.6-1.1,2c-0.3,0.2-0.6,0.3-0.9,0.5c-0.6,0.4-0.8,0.9-0.6,1.5c0.1,0.6,0.4,1.1,0.6,1.6c0.6,1.1,1.2,2.2,1.9,3.1
		c0.1,0.2,0.3,0.3,0.4,0.5c0.6,0.5,1.2,0.5,1.8,0.1c0.3-0.2,0.5-0.3,0.8-0.5c0.9-0.5,1.6-0.5,2.4,0.2c0.8,0.7,1.4,1.5,1.9,2.3
		c0.3,0.6,0.3,1-0.2,1.4c-1.4,1-3,1.6-4.8,1.2c-1-0.2-1.9-0.8-2.7-1.5c-1.2-1.1-2.2-2.5-3-3.9c-0.9-1.5-1.8-3.1-2.2-4.8
		C24.5-16.1,24.4-16.9,24.4-17.6z"/>
</g>
<g>
	<path class="st0" d="M1,7.5c2.9,1.7,5.8,3.3,8.7,4.9c0.3,0.1,0.5,0.1,0.7,0c2.8-1.6,5.7-3.2,8.5-4.8c0.1,0,0.2-0.1,0.3-0.1
		c0,0.1,0,0.1,0,0.2c0,2.9,0,5.1,0,7.9c0,0.2,0,0.2-0.2,0.2c-5.9,0-11.9,0-17.8,0c-0.1,0-0.2,0-0.2-0.2C1,12.8,1,10.5,1,7.5
		C1,7.6,1,7.6,1,7.5z"/>
	<path class="st0" d="M19,4.1c0.2,0,0.2,0,0.2,0.2c0,0.3,0,0.6,0,0.9c0,0.1,0,0.2-0.1,0.3c-2.5,1.4-4.9,2.8-7.4,4.2
		c-0.5,0.3-1,0.6-1.5,0.8c-0.1,0.1-0.1,0.1-0.2,0c-3-1.7-5.9-3.4-8.9-5C1,5.4,1,5.4,1,5.3c0-0.3,0-0.6,0-1C1,4.1,1,4.1,1.2,4.1
		C4.1,4.1,16,4.1,19,4.1z"/>
</g>
</svg>
