<?xml version="1.0" encoding="utf-8"?>
<!-- Generator: Adobe Illustrator 24.1.0, SVG Export Plug-In . SVG Version: 6.00 Build 0)  -->
<svg version="1.1" id="Layer_1" xmlns="http://www.w3.org/2000/svg" xmlns:xlink="http://www.w3.org/1999/xlink" x="0px" y="0px"
	 viewBox="0 0 20 20" style="enable-background:new 0 0 20 20;" xml:space="preserve">
<style type="text/css">
	.st0{fill:#F8EA49;}
</style>
<g>
	<path class="st0" d="M16.8,7.5c0,1.2-0.2,2-0.4,2.8c-0.6,1.8-1.6,3.3-2.8,4.8c-1,1.3-2.2,2.6-3.5,3.7c-0.1,0.1-0.1,0.1-0.2,0
		c-1.8-1.6-3.4-3.4-4.7-5.5C4.4,12.2,3.8,11,3.4,9.6c-0.6-2.2-0.1-4.3,1.4-6c1.1-1.3,2.5-2.1,4.1-2.4c1.9-0.3,3.7,0.1,5.2,1.3
		C15.9,3.9,16.7,5.7,16.8,7.5z M10,10.2c1.3,0,2.3-1,2.3-2.3s-1-2.3-2.3-2.3s-2.3,1-2.3,2.3S8.7,10.2,10,10.2z"/>
</g>
</svg>
