<?xml version="1.0" encoding="utf-8"?>
<!-- Generator: Adobe Illustrator 24.1.0, SVG Export Plug-In . SVG Version: 6.00 Build 0)  -->
<svg version="1.1" id="Layer_1" xmlns="http://www.w3.org/2000/svg" xmlns:xlink="http://www.w3.org/1999/xlink" x="0px" y="0px"
	 viewBox="0 0 20 20" style="enable-background:new 0 0 20 20;" xml:space="preserve">
<style type="text/css">
	.st0{fill:#F8EA49;}
</style>
<g>
	<path class="st0" d="M3.2,6.5c0-1.8,0.8-3.2,2.2-4.3c0.4-0.3,0.9-0.7,1.4-0.9C7.4,1,7.9,1.1,8.2,1.7c0.6,1,1,2,1.2,3.1
		c0.1,1-0.2,1.6-1.1,2C8,7,7.7,7.1,7.4,7.3C6.8,7.7,6.6,8.2,6.8,8.8c0.1,0.6,0.4,1.1,0.6,1.6c0.6,1.1,1.2,2.2,1.9,3.1
		c0.1,0.2,0.3,0.3,0.4,0.5c0.6,0.5,1.2,0.5,1.8,0.1c0.3-0.2,0.5-0.3,0.8-0.5c0.9-0.5,1.6-0.5,2.4,0.2c0.8,0.7,1.4,1.5,1.9,2.3
		c0.3,0.6,0.3,1-0.2,1.4c-1.4,1-3,1.6-4.8,1.2c-1-0.2-1.9-0.8-2.7-1.5c-1.2-1.1-2.2-2.5-3-3.9C5,11.8,4.1,10.2,3.7,8.5
		C3.3,8,3.2,7.2,3.2,6.5z"/>
</g>
</svg>
