<?xml version="1.0" encoding="utf-8"?>
<!-- Generator: Adobe Illustrator 24.1.2, SVG Export Plug-In . SVG Version: 6.00 Build 0)  -->
<svg version="1.1" id="Layer_1" xmlns="http://www.w3.org/2000/svg" xmlns:xlink="http://www.w3.org/1999/xlink" x="0px" y="0px"
	 viewBox="0 0 1150 205" style="enable-background:new 0 0 1150 205;" xml:space="preserve">
<style type="text/css">
	.st0{enable-background:new    ;}
	.st1{fill:#1B5476;}
	.st2{fill:#30AFE4;}
</style>
<g>
	<g class="st0">
		<path class="st1" d="M285.4,121.8c0.3,18.9,18,23.7,33.9,23.7c16.7,0,28.4-6.3,28.4-17.8c0-9.6-7.5-13.6-19.6-15.6l-23.9-4
			c-12.5-2.1-31.2-7.1-31.2-27.6c0-19.2,15.2-32,42.1-32c21.1,0,43.3,7.7,44.8,33h-15.6c-1.3-8.3-6-19.5-31.2-19.5
			c-11.5,0-24.5,4.9-24.5,17.2c0,6.5,4.3,11.6,17.2,13.9l25.8,4.4c8.3,1.5,31.7,5.5,31.7,27c0,26.8-24,34.5-45.2,34.5
			c-23.7,0-48.3-8.3-48.3-37.3H285.4z"/>
		<path class="st1" d="M429.8,79.2h22.4l-36.2,29l39,48.2h-20l-30.8-38.6l-13.6,10.8v27.8h-14.7V50.3h14.7v61.9L429.8,79.2z"/>
		<path class="st1" d="M462.1,50.3h14.7v16.2h-14.7V50.3z M462.1,79.2h14.7v77.2h-14.7V79.2z"/>
		<path class="st1" d="M494.8,79.2h14.7v11.6h0.3c6.9-10.8,19.2-14.3,30.2-14.3c18.6,0,32.4,8,32.4,27.3v52.6h-14.7v-49.7
			c0-11.3-7.1-17.8-22.8-17.8c-13.4,0-25.3,7.8-25.3,23v44.5h-14.7V79.2z"/>
		<path class="st1" d="M592.8,51.2h53.3c31.5,0,46,20.6,46,51.1c0,29.3-12.8,54.1-45.1,54.1h-54.2V51.2z M646.3,142.9
			c25.6,0,30.2-21.5,30.2-40.2c0-18.6-6-37.9-33.2-37.9h-34.9v78.1H646.3z"/>
		<path class="st1" d="M707.7,50.3h14.7v16.2h-14.7V50.3z M707.7,79.2h14.7v77.2h-14.7V79.2z"/>
		<path class="st1" d="M800.3,79.2h16.5L782,156.4h-16.2l-35.1-77.2h16.9l26.5,61L800.3,79.2z"/>
		<path class="st1" d="M837.3,122.3c1.2,15.9,15.3,24.5,28.4,24.5c8.4,0,19.9-2.8,24.9-13.7h15.6c-7.4,18.6-24.6,26.1-39.8,26.1
			c-30.1,0-44.8-19-44.8-41.3c0-22.3,14.7-41.3,44.8-41.3c20.3,0,41.8,11.8,41.8,43.8v1.9H837.3z M892.7,110.8
			c-2.2-14-13.1-21.8-27-21.8c-13.6,0-25.8,8-28,21.8H892.7z"/>
	</g>
	<g class="st0">
		<path class="st2" d="M926.3,51.2h54.2c23.1,0,35.2,10.6,35.2,30.2c0,19.7-12.1,32.9-34.2,32.9h-39.6v42.1h-15.6V51.2z
			 M979.5,100.7c15.5,0,20.6-8.4,20.6-19c0-10-5.9-16.9-17.8-16.9h-40.4v36H979.5z"/>
		<path class="st2" d="M1119.3,106.9h-71.6v49.5h-15.6V51.2h15.6v42.1h71.6V51.2h15.6v105.2h-15.6V106.9z"/>
	</g>
	<g>
		<path class="st2" d="M219.2,128.3c12.1-38.4,0.3-80.5-29-108.9C168.5,10.2,142.1,5.2,132.9,7c1.9,0.7,10.3,4.1,12.1,4.9
			c49,20.5,71.6,78.3,50.4,129c-5.6,13.3-13.5,24.9-23.1,34.2c6.4-11.7,12.3-23.7,10.7-37.5c-3.4-29-40.2-66.5-37-101.8
			c-17.2,1.7-29.3,11.2-29.9,11.7c-8.9,35.7,39.3,61.3,46.5,89.2c6.9,27-8,55.1-33.5,64c26.9-3,51.9-15.5,69.6-35.8
			C207.6,154.4,214.7,142.1,219.2,128.3z"/>
		<path class="st1" d="M7.5,79.8c-10.8,38.8,2.5,80.4,32.8,107.9c6.5,5.9,48.6,12.4,57.7,10.3c-1.9-0.6-10.4-3.7-12.3-4.5
			C36,174.7,11.4,117.8,30.8,66.4c5.1-13.5,12.6-25.3,21.9-35c-6,11.9-11.5,24.1-9.4,37.8c4.4,28.9,42.5,65.1,40.5,100.4
			c17.1-2.3,28.9-12.2,29.4-12.7c7.7-36-41.5-59.9-49.6-87.5C55.8,42.7,69.8,14.1,95,4.3c-26.8,4-51.3,17.3-68.3,38.2
			C18.2,53.3,11.5,65.9,7.5,79.8z"/>
	</g>
</g>
</svg>
