<?xml version="1.0" encoding="utf-8"?>
<!-- Generator: Adobe Illustrator 24.1.0, SVG Export Plug-In . SVG Version: 6.00 Build 0)  -->
<svg version="1.1" id="Layer_1" xmlns="http://www.w3.org/2000/svg" xmlns:xlink="http://www.w3.org/1999/xlink" x="0px" y="0px"
	 viewBox="0 0 930 522" style="enable-background:new 0 0 930 522;" xml:space="preserve">
<style type="text/css">
	.st0{fill:#FFFFFF;}
</style>
<g>
	<g>
		<path class="st0" d="M48.1,457.4c0.3,18.9,18,23.7,33.9,23.7c16.7,0,28.4-6.3,28.4-17.8c0-9.6-7.5-13.6-19.6-15.6l-23.9-4
			c-12.5-2.1-31.2-7.1-31.2-27.6c0-19.2,15.2-32,42.1-32c21.1,0,43.3,7.7,44.8,33H107c-1.3-8.3-6-19.5-31.2-19.5
			c-11.5,0-24.5,4.9-24.5,17.2c0,6.5,4.3,11.6,17.2,13.9l25.8,4.4c8.3,1.5,31.7,5.5,31.7,27c0,26.8-24,34.5-45.2,34.5
			c-23.7,0-48.3-8.3-48.3-37.3H48.1z"/>
		<path class="st0" d="M192.5,414.8h22.4l-36.2,29l39,48.2h-20l-30.8-38.6l-13.6,10.8V492h-14.7V385.9h14.7v61.9L192.5,414.8z"/>
		<path class="st0" d="M224.8,385.9h14.7v16.2h-14.7V385.9z M224.8,414.8h14.7V492h-14.7V414.8z"/>
		<path class="st0" d="M257.5,414.8h14.7v11.6h0.3c6.9-10.8,19.2-14.3,30.2-14.3c18.6,0,32.4,8,32.4,27.3V492h-14.7v-49.7
			c0-11.3-7.1-17.8-22.8-17.8c-13.4,0-25.3,7.8-25.3,23V492h-14.7V414.8z"/>
		<path class="st0" d="M355.4,386.8h53.3c31.5,0,46,20.6,46,51.1c0,29.3-12.8,54.1-45.1,54.1h-54.2V386.8z M408.9,478.5
			c25.6,0,30.2-21.5,30.2-40.2c0-18.6-6-37.9-33.2-37.9h-34.9v78.1H408.9z"/>
		<path class="st0" d="M470.4,385.9h14.7v16.2h-14.7V385.9z M470.4,414.8h14.7V492h-14.7V414.8z"/>
		<path class="st0" d="M562.9,414.8h16.5L544.6,492h-16.2l-35.1-77.2h16.9l26.5,61L562.9,414.8z"/>
		<path class="st0" d="M599.9,457.8c1.2,15.9,15.3,24.5,28.4,24.5c8.4,0,19.9-2.8,24.9-13.7h15.6c-7.4,18.6-24.6,26.1-39.8,26.1
			c-30.1,0-44.8-19-44.8-41.3c0-22.3,14.7-41.3,44.8-41.3c20.3,0,41.8,11.8,41.8,43.8v1.9H599.9z M655.3,446.3
			c-2.2-14-13.1-21.8-27-21.8c-13.6,0-25.8,8-28,21.8H655.3z"/>
		<path class="st0" d="M688.9,386.8h54.2c23.1,0,35.2,10.6,35.2,30.2c0,19.7-12.1,32.9-34.2,32.9h-39.6V492h-15.6V386.8z
			 M742.1,436.3c15.5,0,20.6-8.4,20.6-19c0-10-5.9-16.9-17.8-16.9h-40.4v36H742.1z"/>
		<path class="st0" d="M881.9,442.5h-71.6V492h-15.6V386.8h15.6v42.1h71.6v-42.1h15.6V492h-15.6V442.5z"/>
	</g>
	<g>
		<path class="st0" d="M628.9,214.9c18.3-58.1,0.5-121.8-43.8-164.8c-32.9-13.9-72.8-21.4-86.7-18.6c2.9,1,15.6,6.2,18.4,7.4
			C591,69.9,625.1,157.3,593,234c-8.4,20.1-20.4,37.6-35,51.8c9.8-17.7,18.6-35.9,16.2-56.7c-5.1-43.9-60.9-100.6-56-154
			c-26,2.5-44.3,16.9-45.2,17.7c-13.5,54,59.5,92.8,70.3,134.9c10.5,40.8-12.1,83.4-50.8,96.8c40.7-4.6,78.5-23.5,105.2-54.2
			C611.3,254.4,622,235.8,628.9,214.9z"/>
		<path class="st0" d="M308.5,141.6c-16.3,58.7,3.8,121.7,49.6,163.2c9.8,8.9,73.5,18.8,87.3,15.6c-2.9-0.9-15.8-5.6-18.6-6.7
			c-75.3-28.5-112.4-114.6-83-192.4c7.7-20.4,19-38.3,33.2-53c-9.1,18-17.4,36.5-14.2,57.3c6.6,43.7,64.3,98.4,61.3,151.9
			c25.9-3.4,43.7-18.4,44.5-19.2c11.6-54.4-62.7-90.7-75-132.4c-11.9-40.4,9.2-83.7,47.3-98.5c-40.5,6-77.6,26.2-103.3,57.8
			C324.7,101.4,314.7,120.5,308.5,141.6z"/>
	</g>
</g>
</svg>
